<svg width="236" height="236" viewBox="0 0 236 236" fill="none" xmlns="http://www.w3.org/2000/svg">
<rect width="236" height="236" fill="white"/>
<path d="M202 75.65H145.21L153.76 34.7485L154.03 31.8845C154.03 28.215 152.5 24.814 150.07 22.3975L140.53 13L81.31 71.9805C77.98 75.2025 76 79.6775 76 84.6V174.1C76 183.945 84.1 192 94 192H175C182.47 192 188.86 187.525 191.56 181.081L218.74 117.983C219.55 115.925 220 113.777 220 111.45V93.55C220 83.705 211.9 75.65 202 75.65Z" stroke="black" stroke-width="7" stroke-linejoin="round"/>
<path d="M22 84H58V192H22V84Z" stroke="black" stroke-width="7" stroke-linejoin="round"/>
</svg>
