<svg width="236" height="236" viewBox="0 0 236 236" fill="none" xmlns="http://www.w3.org/2000/svg">
<rect width="236" height="236" fill="white"/>
<path d="M203 77.8985H146.21L160 68.5C169 62 167 54.5 164.5 48L161.5 40.7515L82.31 74.229C78.98 77.451 77 81.926 77 86.8485V176.348C77 186.193 85.1 194.248 95 194.248H176C183.47 194.248 189.86 189.773 192.56 183.329L219.74 120.232C220.55 118.174 221 116.026 221 113.699V95.7985C221 85.9535 212.9 77.8985 203 77.8985Z" stroke="black" stroke-width="7" stroke-linejoin="round"/>
<path d="M22 84H58V192H22V84Z" stroke="black" stroke-width="7" stroke-linejoin="round"/>
</svg>
