donald cerrone anthony pettis mma core<svg width="95" height="57" viewBox="0 0 95 57" fill="none" xmlns="http://www.w3.org/2000/svg">
        <path
          d="M93.6065 20.0865H76.5244C75.756 20.0865 75.133 20.7094 75.133 21.4777V26.6358C73.3542 25.9852 70.3681 25.2468 65.3291 24.6839L63.0301 24.4228C55.3153 23.5388 50.6595 23.0059 43.8845 24.8572C37.1095 26.7043 27.8599 27.173 25.8863 27.0104C24.7582 26.9119 23.6472 27.5454 22.9066 28.7033C21.8684 30.3278 21.817 32.4574 22.776 34.1289C23.7435 35.8176 26.0939 37.7696 31.8586 37.562C42.6322 37.1489 48.1036 37.9879 50.8307 38.8097C48.3434 39.4283 45.5006 40.507 44.3918 42.3326L27.3847 43.1417L6.51808 36.2029C5.24228 35.7534 3.82734 35.8604 2.63074 36.4854C1.43414 37.1104 0.539367 38.2169 0.177604 39.5182C-0.468858 41.8468 0.697772 44.3317 2.89189 45.2969C4.99611 46.2215 7.78746 47.5357 10.7115 48.914C18.9978 52.82 24.5762 55.3927 26.5263 55.566L27.5281 55.673C30.769 56.0305 39.5476 57 46.7037 57C48.0993 57 49.4351 56.9636 50.6552 56.878C61.1442 56.1417 72.1084 53.8345 75.1352 53.1646V55.1294C75.1352 55.8978 75.7581 56.5206 76.5266 56.5206H93.6086C94.3771 56.5206 95 55.8978 95 55.1294V21.4777C94.9957 20.7094 94.3728 20.0865 93.6065 20.0865ZM50.4583 54.1042C43.2423 54.6136 31.6466 53.3294 27.8321 52.9078C27.3076 52.85 26.9437 52.8115 26.7746 52.7943C25.1692 52.6509 17.4994 49.036 11.8974 46.397C8.94766 45.008 6.13277 43.681 4.01143 42.75C3.07598 42.3369 2.5815 41.2668 2.85978 40.2609C3.01819 39.6894 3.39493 39.225 3.91938 38.951C4.44597 38.6749 5.04106 38.6321 5.62116 38.8354L26.7554 45.8641C26.918 45.9176 27.0872 45.939 27.2605 45.9347L45.4043 45.0722C46.0486 45.0401 46.5859 44.5735 46.7058 43.94C46.9241 42.7821 50.9592 41.4337 54.549 40.9415C56.4177 42.4974 57.2055 44.1583 57.2226 44.1925C57.4538 44.7062 57.9611 45.0123 58.492 45.0123C58.6803 45.0123 58.873 44.9716 59.0571 44.8903C59.7592 44.5778 60.076 43.7559 59.7635 43.0539C59.7057 42.9234 58.4727 40.2609 55.4223 38.1141C53.8362 36.3934 48.6002 34.1225 31.7558 34.7817C27.7443 34.938 25.1627 33.8528 24.9016 31.8752C24.7453 30.6959 25.4346 29.8398 25.6508 29.7842C28.014 29.9854 37.6039 29.4588 44.623 27.5433C50.88 25.8353 55.0863 26.3148 62.7175 27.188L65.0251 27.4513C71.7873 28.2068 74.341 29.2191 75.1395 29.6172V50.318C73.489 50.6905 61.6708 53.3144 50.4583 54.1042ZM92.2151 53.7404H77.9158V22.8689H92.2151V53.7404Z"
          fill="black" />
        <path
          d="M13.398 23.8363C13.398 26.9226 10.887 29.4332 7.80029 29.4332C4.71354 29.4332 2.20261 26.9226 2.20261 23.8363C2.20261 21.1781 5.94438 16.1549 6.69574 15.1746C7.22233 14.4876 8.37825 14.4876 8.90484 15.1746C9.65619 16.1549 13.398 21.1781 13.398 23.8363Z"
          fill="black" />
        <path
          d="M18.2721 9.20749C18.2721 12.2938 15.7612 14.8043 12.6766 14.8043C9.59198 14.8043 7.08105 12.2938 7.07891 9.20749C7.07891 6.54926 10.8207 1.52602 11.572 0.545772C11.8353 0.201187 12.2442 0 12.6766 0C13.1111 0 13.5178 0.201187 13.7811 0.545772C14.5304 1.52602 18.2721 6.54926 18.2721 9.20749Z"
          fill="black" />
      </svg>

